{
    "asset" : {
        "generator" : "Khronos glTF Blender I/O v0.9.36",
        "version" : "2.0"
    },
    "scene" : 0,
    "scenes" : [
        {
            "name" : "Scene",
            "nodes" : [
                0,
                1,
                2
            ]
        }
    ],
    "nodes" : [
        {
            "name" : "Light",
            "rotation" : [
                0.16907575726509094,
                0.7558803558349609,
                -0.27217137813568115,
                0.570947527885437
            ],
            "translation" : [
                4.076245307922363,
                5.903861999511719,
                -1.0054539442062378
            ]
        },
        {
            "name" : "Camera",
            "rotation" : [
                0.483536034822464,
                0.33687159419059753,
                -0.20870360732078552,
                0.7804827094078064
            ],
            "translation" : [
                16.75465202331543,
                19.596399307250977,
                15.425142288208008
            ]
        },
        {
            "mesh" : 0,
            "name" : "Object_0",
            "rotation" : [
                0.7071068286895752,
                0,
                0,
                0.7071067094802856
            ],
            "scale" : [
                0.024721624329686165,
                0.024721626192331314,
                0.024721626192331314
            ],
            "translation" : [
                -0.39034366607666016,
                6.557825088500977,
                -4.038703918457031
            ]
        }
    ],
    "materials" : [
        {
            "name" : "material",
            "pbrMetallicRoughness" : {
                "baseColorTexture" : {
                    "index" : 0,
                    "texCoord" : 0
                },
                "metallicFactor" : 0,
                "roughnessFactor" : 1
            }
        }
    ],
    "meshes" : [
        {
            "name" : "Mesh_0",
            "primitives" : [
                {
                    "attributes" : {
                        "POSITION" : 0,
                        "NORMAL" : 1,
                        "TEXCOORD_0" : 2
                    },
                    "indices" : 3,
                    "material" : 0
                },
                {
                    "attributes" : {
                        "POSITION" : 4,
                        "NORMAL" : 5,
                        "TEXCOORD_0" : 6
                    },
                    "indices" : 3,
                    "material" : 0
                },
                {
                    "attributes" : {
                        "POSITION" : 7,
                        "NORMAL" : 8,
                        "TEXCOORD_0" : 9
                    },
                    "indices" : 10,
                    "material" : 0
                },
                {
                    "attributes" : {
                        "POSITION" : 11,
                        "NORMAL" : 12,
                        "TEXCOORD_0" : 13
                    },
                    "indices" : 3,
                    "material" : 0
                },
                {
                    "attributes" : {
                        "POSITION" : 14,
                        "NORMAL" : 15,
                        "TEXCOORD_0" : 16
                    },
                    "indices" : 3,
                    "material" : 0
                },
                {
                    "attributes" : {
                        "POSITION" : 17,
                        "NORMAL" : 18,
                        "TEXCOORD_0" : 19
                    },
                    "indices" : 10,
                    "material" : 0
                },
                {
                    "attributes" : {
                        "POSITION" : 20,
                        "NORMAL" : 21,
                        "TEXCOORD_0" : 22
                    },
                    "indices" : 3,
                    "material" : 0
                },
                {
                    "attributes" : {
                        "POSITION" : 23,
                        "NORMAL" : 24,
                        "TEXCOORD_0" : 25
                    },
                    "indices" : 3,
                    "material" : 0
                },
                {
                    "attributes" : {
                        "POSITION" : 26,
                        "NORMAL" : 27,
                        "TEXCOORD_0" : 28
                    },
                    "indices" : 29,
                    "material" : 0
                }
            ]
        }
    ],
    "textures" : [
        {
            "source" : 0
        }
    ],
    "images" : [
        {
            "mimeType" : "image/png",
            "name" : "Image_0",
            "uri" : "Image_0.png"
        }
    ],
    "accessors" : [
        {
            "bufferView" : 0,
            "componentType" : 5126,
            "count" : 65535,
            "max" : [
                537.1043090820312,
                501.3446044921875,
                341.4915771484375
            ],
            "min" : [
                -457.9753112792969,
                -497.86737060546875,
                -407.0896911621094
            ],
            "type" : "VEC3"
        },
        {
            "bufferView" : 1,
            "componentType" : 5126,
            "count" : 65535,
            "type" : "VEC3"
        },
        {
            "bufferView" : 2,
            "componentType" : 5126,
            "count" : 65535,
            "type" : "VEC2"
        },
        {
            "bufferView" : 3,
            "componentType" : 5123,
            "count" : 65535,
            "type" : "SCALAR"
        },
        {
            "bufferView" : 4,
            "componentType" : 5126,
            "count" : 65535,
            "max" : [
                536.696533203125,
                499.7863464355469,
                234.9397430419922
            ],
            "min" : [
                -462.0509338378906,
                -497.3772888183594,
                -407.0896911621094
            ],
            "type" : "VEC3"
        },
        {
            "bufferView" : 5,
            "componentType" : 5126,
            "count" : 65535,
            "type" : "VEC3"
        },
        {
            "bufferView" : 6,
            "componentType" : 5126,
            "count" : 65535,
            "type" : "VEC2"
        },
        {
            "bufferView" : 7,
            "componentType" : 5126,
            "count" : 8673,
            "max" : [
                536.7681274414062,
                498.87384033203125,
                226.12619018554688
            ],
            "min" : [
                -460.7395324707031,
                -480.9306640625,
                -392.5965270996094
            ],
            "type" : "VEC3"
        },
        {
            "bufferView" : 8,
            "componentType" : 5126,
            "count" : 8673,
            "type" : "VEC3"
        },
        {
            "bufferView" : 9,
            "componentType" : 5126,
            "count" : 8673,
            "type" : "VEC2"
        },
        {
            "bufferView" : 10,
            "componentType" : 5123,
            "count" : 8673,
            "type" : "SCALAR"
        },
        {
            "bufferView" : 11,
            "componentType" : 5126,
            "count" : 65535,
            "max" : [
                536.930908203125,
                500.0550231933594,
                333.5326232910156
            ],
            "min" : [
                -461.1051940917969,
                -497.6078796386719,
                -407.0896911621094
            ],
            "type" : "VEC3"
        },
        {
            "bufferView" : 12,
            "componentType" : 5126,
            "count" : 65535,
            "type" : "VEC3"
        },
        {
            "bufferView" : 13,
            "componentType" : 5126,
            "count" : 65535,
            "type" : "VEC2"
        },
        {
            "bufferView" : 14,
            "componentType" : 5126,
            "count" : 65535,
            "max" : [
                536.7681274414062,
                499.7863464355469,
                325.57366943359375
            ],
            "min" : [
                -462.0509338378906,
                -498.6553955078125,
                -404.12188720703125
            ],
            "type" : "VEC3"
        },
        {
            "bufferView" : 15,
            "componentType" : 5126,
            "count" : 65535,
            "type" : "VEC3"
        },
        {
            "bufferView" : 16,
            "componentType" : 5126,
            "count" : 65535,
            "type" : "VEC2"
        },
        {
            "bufferView" : 17,
            "componentType" : 5126,
            "count" : 8673,
            "max" : [
                536.749267578125,
                497.79052734375,
                333.5326232910156
            ],
            "min" : [
                -459.9970397949219,
                -497.484619140625,
                -384.24169921875
            ],
            "type" : "VEC3"
        },
        {
            "bufferView" : 18,
            "componentType" : 5126,
            "count" : 8673,
            "type" : "VEC3"
        },
        {
            "bufferView" : 19,
            "componentType" : 5126,
            "count" : 8673,
            "type" : "VEC2"
        },
        {
            "bufferView" : 20,
            "componentType" : 5126,
            "count" : 65535,
            "max" : [
                536.7681274414062,
                497.79052734375,
                321.59417724609375
            ],
            "min" : [
                -462.0509338378906,
                -498.6553955078125,
                -400.5677185058594
            ],
            "type" : "VEC3"
        },
        {
            "bufferView" : 21,
            "componentType" : 5126,
            "count" : 65535,
            "type" : "VEC3"
        },
        {
            "bufferView" : 22,
            "componentType" : 5126,
            "count" : 65535,
            "type" : "VEC2"
        },
        {
            "bufferView" : 23,
            "componentType" : 5126,
            "count" : 65535,
            "max" : [
                536.7523803710938,
                498.5565490722656,
                325.57366943359375
            ],
            "min" : [
                -460.774169921875,
                -496.88507080078125,
                -396.98211669921875
            ],
            "type" : "VEC3"
        },
        {
            "bufferView" : 24,
            "componentType" : 5126,
            "count" : 65535,
            "type" : "VEC3"
        },
        {
            "bufferView" : 25,
            "componentType" : 5126,
            "count" : 65535,
            "type" : "VEC2"
        },
        {
            "bufferView" : 26,
            "componentType" : 5126,
            "count" : 8676,
            "max" : [
                535.8309936523438,
                484.830810546875,
                229.61119079589844
            ],
            "min" : [
                -447.9688720703125,
                -495.4394836425781,
                -389.6233825683594
            ],
            "type" : "VEC3"
        },
        {
            "bufferView" : 27,
            "componentType" : 5126,
            "count" : 8676,
            "type" : "VEC3"
        },
        {
            "bufferView" : 28,
            "componentType" : 5126,
            "count" : 8676,
            "type" : "VEC2"
        },
        {
            "bufferView" : 29,
            "componentType" : 5123,
            "count" : 8676,
            "type" : "SCALAR"
        }
    ],
    "bufferViews" : [
        {
            "buffer" : 0,
            "byteLength" : 786420,
            "byteOffset" : 0
        },
        {
            "buffer" : 0,
            "byteLength" : 786420,
            "byteOffset" : 786420
        },
        {
            "buffer" : 0,
            "byteLength" : 524280,
            "byteOffset" : 1572840
        },
        {
            "buffer" : 0,
            "byteLength" : 131070,
            "byteOffset" : 2097120
        },
        {
            "buffer" : 0,
            "byteLength" : 786420,
            "byteOffset" : 2228192
        },
        {
            "buffer" : 0,
            "byteLength" : 786420,
            "byteOffset" : 3014612
        },
        {
            "buffer" : 0,
            "byteLength" : 524280,
            "byteOffset" : 3801032
        },
        {
            "buffer" : 0,
            "byteLength" : 104076,
            "byteOffset" : 4325312
        },
        {
            "buffer" : 0,
            "byteLength" : 104076,
            "byteOffset" : 4429388
        },
        {
            "buffer" : 0,
            "byteLength" : 69384,
            "byteOffset" : 4533464
        },
        {
            "buffer" : 0,
            "byteLength" : 17346,
            "byteOffset" : 4602848
        },
        {
            "buffer" : 0,
            "byteLength" : 786420,
            "byteOffset" : 4620196
        },
        {
            "buffer" : 0,
            "byteLength" : 786420,
            "byteOffset" : 5406616
        },
        {
            "buffer" : 0,
            "byteLength" : 524280,
            "byteOffset" : 6193036
        },
        {
            "buffer" : 0,
            "byteLength" : 786420,
            "byteOffset" : 6717316
        },
        {
            "buffer" : 0,
            "byteLength" : 786420,
            "byteOffset" : 7503736
        },
        {
            "buffer" : 0,
            "byteLength" : 524280,
            "byteOffset" : 8290156
        },
        {
            "buffer" : 0,
            "byteLength" : 104076,
            "byteOffset" : 8814436
        },
        {
            "buffer" : 0,
            "byteLength" : 104076,
            "byteOffset" : 8918512
        },
        {
            "buffer" : 0,
            "byteLength" : 69384,
            "byteOffset" : 9022588
        },
        {
            "buffer" : 0,
            "byteLength" : 786420,
            "byteOffset" : 9091972
        },
        {
            "buffer" : 0,
            "byteLength" : 786420,
            "byteOffset" : 9878392
        },
        {
            "buffer" : 0,
            "byteLength" : 524280,
            "byteOffset" : 10664812
        },
        {
            "buffer" : 0,
            "byteLength" : 786420,
            "byteOffset" : 11189092
        },
        {
            "buffer" : 0,
            "byteLength" : 786420,
            "byteOffset" : 11975512
        },
        {
            "buffer" : 0,
            "byteLength" : 524280,
            "byteOffset" : 12761932
        },
        {
            "buffer" : 0,
            "byteLength" : 104112,
            "byteOffset" : 13286212
        },
        {
            "buffer" : 0,
            "byteLength" : 104112,
            "byteOffset" : 13390324
        },
        {
            "buffer" : 0,
            "byteLength" : 69408,
            "byteOffset" : 13494436
        },
        {
            "buffer" : 0,
            "byteLength" : 17352,
            "byteOffset" : 13563844
        }
    ],
    "buffers" : [
        {
            "byteLength" : 13581196,
            "uri" : "mhgltf.bin"
        }
    ]
}
