{"asset":{"generator":"3D Builder","version":"2.0"},"scene":0,"scenes":[{"nodes":[0]}],"nodes":[{"mesh":0,"matrix":[0.030943343415856361,-0.00011506815644679591,-0.000652176677249372,0,-0.00063876021886244416,0.0028601358644664288,-0.03081139363348484,0,0.00017481973918620497,0.030817780643701553,0.0028571032453328371,0,-0.11537093669176102,0.15941216051578522,0.013267316855490208,1]}],"meshes":[{"primitives":[{"attributes":{"POSITION":0,"COLOR_0":19},"mode":4,"indices":20},{"attributes":{"POSITION":1,"TEXCOORD_0":10},"mode":4,"indices":21,"material":0},{"attributes":{"POSITION":2,"TEXCOORD_0":11},"mode":4,"indices":22,"material":0},{"attributes":{"POSITION":3,"TEXCOORD_0":12},"mode":4,"indices":23,"material":0},{"attributes":{"POSITION":4,"TEXCOORD_0":13},"mode":4,"indices":24,"material":0},{"attributes":{"POSITION":5,"TEXCOORD_0":14},"mode":4,"indices":25,"material":0},{"attributes":{"POSITION":6,"TEXCOORD_0":15},"mode":4,"indices":26,"material":0},{"attributes":{"POSITION":7,"TEXCOORD_0":16},"mode":4,"indices":27,"material":0},{"attributes":{"POSITION":8,"TEXCOORD_0":17},"mode":4,"indices":28,"material":0},{"attributes":{"POSITION":9,"TEXCOORD_0":18},"mode":4,"indices":29,"material":0}]}],"materials":[{"pbrMetallicRoughness":{"baseColorFactor":[1,1,1,1],"metallicFactor":0,"roughnessFactor":1,"baseColorTexture":{"index":0,"texCoord":0}},"alphaMode":"OPAQUE"}],"textures":[{"source":0,"sampler":0}],"images":[{"uri":"texture_0.jpeg"}],"samplers":[{"magFilter":9729,"wrapS":10497,"wrapT":10497}],"accessors":[{"bufferView":0,"byteOffset":0,"count":2210,"componentType":5126,"type":"VEC3","min":[-7.3196539878845215,-7.3314671516418457,-5.2765946388244629],"max":[3.9814136028289795,3.8884735107421875,-4.1322221755981445]},{"bufferView":0,"byteOffset":26520,"count":21613,"componentType":5126,"type":"VEC3","min":[-7.6505661010742188,-7.4866948127746582,-5.2356014251708984],"max":[5.1458525657653809,6.6510977745056152,10.264647483825684]},{"bufferView":0,"byteOffset":285876,"count":18227,"componentType":5126,"type":"VEC3","min":[-7.4719142913818359,-7.489896297454834,-5.20077657699585],"max":[5.0981454849243164,6.6449308395385742,10.174386978149414]},{"bufferView":0,"byteOffset":504600,"count":27278,"componentType":5126,"type":"VEC3","min":[-7.7701883316040039,-7.452338695526123,-5.2765946388244629],"max":[5.1560039520263672,6.6510977745056152,10.339763641357422]},{"bufferView":0,"byteOffset":831936,"count":20621,"componentType":5126,"type":"VEC3","min":[-7.7701883316040039,-7.489896297454834,-5.2765946388244629],"max":[5.1384358406066895,6.5900378227233887,10.339763641357422]},{"bufferView":0,"byteOffset":1079388,"count":18789,"componentType":5126,"type":"VEC3","min":[-7.6768016815185547,-7.4214963912963867,-5.223264217376709],"max":[5.1560039520263672,6.6510977745056152,10.083186149597168]},{"bufferView":0,"byteOffset":1304856,"count":3643,"componentType":5126,"type":"VEC3","min":[-7.2511758804321289,-7.2615838050842285,-5.0381317138671875],"max":[4.4322605133056641,6.4684653282165527,9.75969123840332]},{"bufferView":0,"byteOffset":1348572,"count":2545,"componentType":5126,"type":"VEC3","min":[-7.634793758392334,-7.3218631744384766,-5.09794282913208],"max":[4.7446675300598145,6.3611788749694824,9.9717617034912109]},{"bufferView":0,"byteOffset":1379112,"count":14042,"componentType":5126,"type":"VEC3","min":[-7.7701883316040039,-7.4214963912963867,-5.2699575424194336],"max":[5.1384358406066895,6.6229119300842285,10.339763641357422]},{"bufferView":0,"byteOffset":1547616,"count":2985,"componentType":5126,"type":"VEC3","min":[-7.3483104705810547,-7.3979930877685547,-4.8969588279724121],"max":[5.0904922485351563,6.047055721282959,9.8961009979248047]},{"bufferView":1,"byteOffset":0,"count":21613,"componentType":5126,"type":"VEC2"},{"bufferView":1,"byteOffset":172904,"count":18227,"componentType":5126,"type":"VEC2"},{"bufferView":1,"byteOffset":318720,"count":27278,"componentType":5126,"type":"VEC2"},{"bufferView":1,"byteOffset":536944,"count":20621,"componentType":5126,"type":"VEC2"},{"bufferView":1,"byteOffset":701912,"count":18789,"componentType":5126,"type":"VEC2"},{"bufferView":1,"byteOffset":852224,"count":3643,"componentType":5126,"type":"VEC2"},{"bufferView":1,"byteOffset":881368,"count":2545,"componentType":5126,"type":"VEC2"},{"bufferView":1,"byteOffset":901728,"count":14042,"componentType":5126,"type":"VEC2"},{"bufferView":1,"byteOffset":1014064,"count":2985,"componentType":5126,"type":"VEC2"},{"bufferView":2,"byteOffset":0,"count":2210,"componentType":5121,"type":"VEC4","normalized":true},{"bufferView":3,"byteOffset":0,"count":6771,"componentType":5125,"type":"SCALAR"},{"bufferView":3,"byteOffset":27084,"count":33897,"componentType":5125,"type":"SCALAR"},{"bufferView":3,"byteOffset":162672,"count":29745,"componentType":5125,"type":"SCALAR"},{"bufferView":3,"byteOffset":281652,"count":57918,"componentType":5125,"type":"SCALAR"},{"bufferView":3,"byteOffset":513324,"count":41649,"componentType":5125,"type":"SCALAR"},{"bufferView":3,"byteOffset":679920,"count":31362,"componentType":5125,"type":"SCALAR"},{"bufferView":3,"byteOffset":805368,"count":5022,"componentType":5125,"type":"SCALAR"},{"bufferView":3,"byteOffset":825456,"count":4260,"componentType":5125,"type":"SCALAR"},{"bufferView":3,"byteOffset":842496,"count":27447,"componentType":5125,"type":"SCALAR"},{"bufferView":3,"byteOffset":952284,"count":4269,"componentType":5125,"type":"SCALAR"}],"bufferViews":[{"buffer":0,"byteOffset":0,"byteLength":1583436,"byteStride":12,"target":34962},{"buffer":0,"byteOffset":1583436,"byteLength":1037944,"byteStride":8,"target":34962},{"buffer":0,"byteOffset":2621380,"byteLength":8840,"byteStride":4,"target":34962},{"buffer":0,"byteOffset":2630220,"byteLength":969360,"target":34963}],"buffers":[{"byteLength":3599580,"uri":"mhglibfinal.bin"}]}